<?xml version="1.0" encoding="UTF-8"?>
<svg width="428px" height="256px" viewBox="0 0 428 256" version="1.1" xmlns="http://www.w3.org/2000/svg" xmlns:xlink="http://www.w3.org/1999/xlink">
    <!-- Generator: Sketch 48.1 (47250) - http://www.bohemiancoding.com/sketch -->
    <title>Group 13</title>
    <desc>Created with Sketch.</desc>
    <defs></defs>
    <g id="信息披露-copy" stroke="none" stroke-width="1" fill="none" fill-rule="evenodd" transform="translate(-163.000000, -894.000000)">
        <g id="Group-13" transform="translate(163.000000, 894.000000)">
            <path d="M98,198 L160,198" id="Line-3-Copy" stroke="#4A4B5C" stroke-width="3" stroke-linecap="round" stroke-linejoin="round"></path>
            <path id="Line-3-Copy-decoration-1" d="M160,195 L160,201" stroke="#4A4B5C" stroke-width="3" stroke-linecap="round" stroke-linejoin="round"></path>
            <path d="M264,198 L326,198" id="Line-3-Copy-2" stroke="#4A4B5C" stroke-width="3" stroke-linecap="round" stroke-linejoin="round"></path>
            <path id="Line-3-Copy-2-decoration-1" d="M264,195 L264,201" stroke="#4A4B5C" stroke-width="3" stroke-linecap="round" stroke-linejoin="round"></path>
            <text id="资金隔离" font-family="PingFangSC-Regular, PingFang SC" font-size="22" font-weight="normal" line-spacing="24" fill="#4A4B5C">
                <tspan x="168" y="209">资金隔离</tspan>
            </text>
            <g id="Page-1" transform="translate(0.000000, 170.000000)" fill="#4A4B5C">
                <path d="M35.822481,35.7142885 C34.4799999,35.7171503 33.3333333,37.1400369 33.3333333,37.8904007 L33.3333333,47.6084987 C33.3333333,48.3663032 34.4673296,49.8538664 35.822481,49.8510046 C37.1678417,49.8487152 38.3110527,48.3600072 38.3110527,47.6084987 L38.3110527,37.8904007 C38.3110527,37.1314515 37.1799361,35.711999 35.822481,35.7142885" id="Fill-1"></path>
                <path d="M64.9904031,16.1487951 C65.9412565,15.3163458 67.4083691,13.8547065 67.854385,13.3688256 C68.444885,12.7236489 68.5259788,10.7030467 68.5259788,10.7030467 L67.854385,2.70799385 C67.854385,2.70799385 67.3369837,1.58892624 66.5106264,0.709658842 C65.6842691,-0.169608561 64.495274,0.0433568554 64.495274,0.0433568554 L53.0747534,5.37320179 C47.9698413,2.56753944 41.854112,0.709658842 35.6070335,0.709658842 L35.6070335,0.689104539 C29.359384,0.689104539 23.2425126,2.54755609 18.1398847,5.3549313 L6.7187931,0.0228025525 C6.7187931,0.0228025525 5.52979801,-0.190733817 4.70344071,0.689104539 C3.87651233,1.56837194 3.35911101,2.68858145 3.35911101,2.68858145 L2.68751724,10.6870601 C2.68751724,10.6870601 2.76918213,12.7082332 3.35911101,13.3534099 C3.80455585,13.8404327 5.27223951,15.302072 6.22366402,16.1350922 C2.29975179,21.8189279 0,28.6029898 0,36.0150998 C0,44.2391048 1.91484176,47.4484308 1.91484176,47.4484308 C2.23693264,48.3254144 3.7080428,49.3462781 4.70344071,49.3462781 C5.97467177,49.3462781 7.55371664,47.9291731 7.55371664,46.6656545 C7.16138253,45.4403896 5.37446339,42.3698051 5.37446339,36.0150998 C5.37446339,27.5021927 9.26068414,19.8896782 14.8841398,14.3160364 L8.26185973,10.1349486 L8.97000282,6.48598892 L18.8114785,11.353933 C23.5982974,8.34729524 29.523856,6.02123329 35.6070335,6.02123329 L35.6070335,6.03950378 C41.68964,6.03950378 47.6151986,8.36499477 52.4025886,11.3699197 L62.2434932,6.50368845 L62.9522073,10.1515063 L56.3299273,14.3303102 C61.9528119,19.9016682 65.8384615,27.5113279 65.8384615,36.0213803 C65.8384615,42.3732309 64.0515424,45.4421025 63.6603504,46.6667964 C63.6603504,47.9297441 65.2393953,49.3462781 66.5106264,49.3462781 C67.5054532,49.3462781 68.9771344,48.3259854 69.2992253,47.4490018 C69.2992253,47.4490018 71.213496,44.2413886 71.213496,36.0213803 C71.213496,28.6121251 68.9143153,21.830347 64.9904031,16.1487951" id="Fill-3"></path>
                <path d="M44.1369909,19.6573619 L26.3962717,19.6573619 C26.0042815,19.6573619 25.686436,19.3452415 25.686436,18.9608762 C25.686436,18.5753822 26.0042815,18.2638262 26.3962717,18.2638262 L44.1369909,18.2638262 C44.5295559,18.2638262 44.8468266,18.5753822 44.8468266,18.9608762 C44.8468266,19.3452415 44.5295559,19.6573619 44.1369909,19.6573619 M46.9751841,15.4761905 L23.5580785,15.4761905 C22.379234,15.4761905 21.4285714,16.342 21.4285714,17.5667762 L21.4285714,20.3544119 C21.4285714,21.5791881 22.379234,22.4449976 23.5580785,22.4449976 L46.9751841,22.4449976 C48.1546034,22.4449976 49.1046912,21.5786237 49.1046912,20.3544119 L49.1046912,17.5667762 C49.1046912,16.3425644 48.1546034,15.4761905 46.9751841,15.4761905" id="Fill-6"></path>
                <path d="M35.822481,28.5714286 C34.4477481,28.5714286 33.3333333,29.6858434 33.3333333,31.0600003 C33.3333333,32.4341572 34.4477481,33.549148 35.822481,33.549148 C37.1972139,33.549148 38.3110527,32.4341572 38.3110527,31.0600003 C38.3110527,29.6858434 37.1972139,28.5714286 35.822481,28.5714286" id="Fill-8"></path>
            </g>
            <text id="爱钱进" font-family="PingFangSC-Regular, PingFang SC" font-size="24" font-weight="normal" fill="#4A4B5C">
                <tspan x="0" y="253">爱钱进</tspan>
            </text>
            <text id="用户" font-family="PingFangSC-Regular, PingFang SC" font-size="24" font-weight="normal" fill="#4A4B5C">
                <tspan x="188" y="87">用户</tspan>
            </text>
            <text id="存管银行" font-family="PingFangSC-Regular, PingFang SC" font-size="24" font-weight="normal" fill="#4A4B5C">
                <tspan x="332.5" y="253">存管银行</tspan>
            </text>
            <g id="Group-5-Copy-8" transform="translate(188.000000, 0.000000)" stroke="#4A4B5C" stroke-width="4">
                <g id="Group-16-Copy-2">
                    <path d="M43.3824891,42.7667197 C38.3987909,39.1419787 30.6272197,35.9979243 24.0006325,36.0000011 C17.6928143,36.0019779 11.6041976,38.4925827 4.48323426,42.8528206 C3.08690885,43.7078047 1.9950293,45.2916612 2.00001734,47.4030741 C2.00203069,48.2553144 2.00598486,53.148672 2.00665372,54.6964219 C2.00699209,55.4794169 2.33256185,56 3.55494597,56 L43.3443198,56 C44.6286467,56 45.3428401,55.7203057 45.7115082,55.3142233 C45.9033885,55.10287 45.9933022,54.8407111 45.9933552,54.7156938 C45.9939199,53.3840866 45.9979554,49.130782 45.9999956,47.4054339 C46.0025053,45.2831006 45.073745,43.996803 43.3824891,42.7667197 Z" id="Mask"></path>
                    <circle id="Oval-8" cx="24" cy="15" r="13"></circle>
                </g>
            </g>
            <g id="Group-6" transform="translate(98.292893, 98.292893) rotate(-45.000000) translate(-98.292893, -98.292893) translate(38.292893, 55.292893)">
                <g id="平箭头-copy" transform="translate(0.000000, 52.000000)" stroke="#FF9100" stroke-linecap="round" stroke-linejoin="round" stroke-width="4">
                    <polyline id="Line-3" points="10.511898 10.511898 0 0 120 0"></polyline>
                </g>
                <g id="平箭头-copy-2" transform="translate(60.000000, 30.500000) scale(-1, -1) translate(-60.000000, -30.500000) translate(0.000000, 25.000000)" stroke="#4A4B5C" stroke-linecap="round" stroke-linejoin="round" stroke-width="4">
                    <polyline id="Line-3" points="10.511898 10.511898 0 0 120 0"></polyline>
                </g>
                <text id="信息" font-family="PingFangSC-Regular, PingFang SC" font-size="22" font-weight="normal" line-spacing="24" fill="#4A4B5C">
                    <tspan x="38" y="23">信息</tspan>
                </text>
                <text id="信息-copy" font-family="PingFangSC-Regular, PingFang SC" font-size="22" font-weight="normal" line-spacing="24" fill="#FF9100">
                    <tspan x="38" y="85">信息</tspan>
                </text>
            </g>
            <g id="Group-12" transform="translate(328.060660, 97.939340) rotate(-315.000000) translate(-328.060660, -97.939340) translate(268.060660, 54.439340)">
                <g id="平箭头-copy-4" transform="translate(60.000000, 58.500000) scale(-1, 1) translate(-60.000000, -58.500000) translate(0.000000, 53.000000)" stroke="#FF9100" stroke-linecap="round" stroke-linejoin="round" stroke-width="4">
                    <polyline id="Line-3" points="10.511898 10.511898 0 0 120 0"></polyline>
                </g>
                <g id="平箭头-copy-3" transform="translate(60.000000, 31.500000) scale(1, -1) translate(-60.000000, -31.500000) translate(0.000000, 26.000000)" stroke="#4A4B5C" stroke-linecap="round" stroke-linejoin="round" stroke-width="4">
                    <polyline id="Line-3" points="10.511898 10.511898 0 0 120 0"></polyline>
                </g>
                <text id="资金" font-family="PingFangSC-Regular, PingFang SC" font-size="22" font-weight="normal" line-spacing="24" fill="#4A4B5C">
                    <tspan x="37.2928932" y="23.5355339">资金</tspan>
                </text>
                <text id="资金-copy" font-family="PingFangSC-Regular, PingFang SC" font-size="22" font-weight="normal" line-spacing="24" fill="#FF9100">
                    <tspan x="37.2928932" y="85.5355339">资金</tspan>
                </text>
            </g>
            <g id="银行" transform="translate(347.000000, 166.000000)">
                <path d="M10,29 L10,55" id="Stroke-12" stroke="#4A4B5C" stroke-width="4" stroke-linecap="round"></path>
                <path d="M20,29 L20,55.2564544" id="Stroke-12" stroke="#4A4B5C" stroke-width="4" stroke-linecap="round"></path>
                <path d="M49.6666667,29 L49.6666667,55.4184243" id="Stroke-12" stroke="#4A4B5C" stroke-width="4" stroke-linecap="round"></path>
                <path d="M58,29 L58,56.2503347" id="Stroke-14" stroke="#4A4B5C" stroke-width="4" stroke-linecap="round"></path>
                <path d="M64.7682928,15.7869991 L35.2665332,0.491508777 C34.2909897,-0.163836259 32.7090103,-0.163836259 31.7334668,0.491508777 L2.54460559,15.7865795 L2,22 L65,22 L64.7682928,15.7869991 Z" id="Page-1" stroke="#4A4B5C" stroke-width="4" stroke-linecap="round" stroke-linejoin="round"></path>
                <path d="M0,56 L67.8134796,56" id="Stroke-24" stroke="#4A4B5C" stroke-width="4" stroke-linecap="round"></path>
                <path d="M34.5363731,40.5358111 C33.918204,41.1547296 32.9046293,41.1547296 32.2864601,40.5358111 L27.4636269,35.714133 C26.8454577,35.0952144 26.8454577,34.0825109 27.4636269,33.4635923 C28.0833872,32.8454692 29.0953707,32.8454692 29.7143354,33.4635923 L34.5363731,38.2852704 C35.1545423,38.9041889 35.1545423,39.9168925 34.5363731,40.5358111" id="Fill-10" fill="#4A4B5C"></path>
                <path d="M35.7143354,40.5358111 L40.5363731,35.714133 C41.1545423,35.0952144 41.1545423,34.0825109 40.5363731,33.4635923 C39.9174084,32.8454692 38.9046293,32.8454692 38.2864601,33.4635923 L33.4636269,38.2852704 C32.8454577,38.9041889 32.8454577,39.9168925 33.4636269,40.5358111 C34.0825916,41.1547296 35.0953707,41.1547296 35.7143354,40.5358111 Z" id="Fill-12" fill="#4A4B5C"></path>
                <path d="M28.5555556,43 L39.4444444,43 C40.3,43 41,42.325 41,41.5 C41,40.675 40.3,40 39.4444444,40 L28.5555556,40 C27.6992222,40 27,40.675 27,41.5 C27,42.325 27.6992222,43 28.5555556,43 Z" id="Fill-14" fill="#4A4B5C"></path>
                <path d="M33.5,50 C34.325,50 35,49.28 35,48.4 L35,43.6 C35,42.72 34.325,42 33.5,42 C32.67425,42 32,42.72 32,43.6 L32,48.4 C32,49.28 32.67425,50 33.5,50" id="Fill-16" fill="#4A4B5C"></path>
            </g>
        </g>
    </g>
</svg>